<svg width="131" height="32" viewBox="0 0 131 32" fill="none" xmlns="http://www.w3.org/2000/svg">
<path d="M44.568 10.436V19.256C44.568 20.48 44.214 21.434 43.506 22.118C42.798 22.79 41.85 23.126 40.662 23.126C39.462 23.126 38.49 22.778 37.746 22.082C37.014 21.386 36.648 20.414 36.648 19.166H39.168C39.18 19.706 39.306 20.126 39.546 20.426C39.798 20.726 40.158 20.876 40.626 20.876C41.082 20.876 41.43 20.732 41.67 20.444C41.91 20.156 42.03 19.76 42.03 19.256V10.436H44.568ZM46.8596 17.978C46.8596 16.97 47.0576 16.076 47.4536 15.296C47.8616 14.516 48.4076 13.916 49.0916 13.496C49.7876 13.076 50.5616 12.866 51.4136 12.866C52.1576 12.866 52.8056 13.016 53.3576 13.316C53.9216 13.616 54.3716 13.994 54.7076 14.45V13.028H57.2456V23H54.7076V21.542C54.3836 22.01 53.9336 22.4 53.3576 22.712C52.7936 23.012 52.1396 23.162 51.3956 23.162C50.5556 23.162 49.7876 22.946 49.0916 22.514C48.4076 22.082 47.8616 21.476 47.4536 20.696C47.0576 19.904 46.8596 18.998 46.8596 17.978ZM54.7076 18.014C54.7076 17.402 54.5876 16.88 54.3476 16.448C54.1076 16.004 53.7836 15.668 53.3756 15.44C52.9676 15.2 52.5296 15.08 52.0616 15.08C51.5936 15.08 51.1616 15.194 50.7656 15.422C50.3696 15.65 50.0456 15.986 49.7936 16.43C49.5536 16.862 49.4336 17.378 49.4336 17.978C49.4336 18.578 49.5536 19.106 49.7936 19.562C50.0456 20.006 50.3696 20.348 50.7656 20.588C51.1736 20.828 51.6056 20.948 52.0616 20.948C52.5296 20.948 52.9676 20.834 53.3756 20.606C53.7836 20.366 54.1076 20.03 54.3476 19.598C54.5876 19.154 54.7076 18.626 54.7076 18.014ZM69.2468 13.028L63.0728 27.716H60.3908L62.5508 22.748L58.5548 13.028H61.3808L63.9548 19.994L66.5648 13.028H69.2468ZM71.1093 10.436H73.7553L71.8113 14.972H70.0833L71.1093 10.436ZM79.3783 23.162C78.5623 23.162 77.8303 23.018 77.1823 22.73C76.5343 22.43 76.0183 22.028 75.6343 21.524C75.2623 21.02 75.0583 20.462 75.0223 19.85H77.5603C77.6083 20.234 77.7943 20.552 78.1183 20.804C78.4543 21.056 78.8683 21.182 79.3603 21.182C79.8403 21.182 80.2123 21.086 80.4763 20.894C80.7523 20.702 80.8903 20.456 80.8903 20.156C80.8903 19.832 80.7223 19.592 80.3863 19.436C80.0623 19.268 79.5403 19.088 78.8203 18.896C78.0763 18.716 77.4643 18.53 76.9843 18.338C76.5163 18.146 76.1083 17.852 75.7603 17.456C75.4243 17.06 75.2563 16.526 75.2563 15.854C75.2563 15.302 75.4123 14.798 75.7243 14.342C76.0483 13.886 76.5043 13.526 77.0923 13.262C77.6923 12.998 78.3943 12.866 79.1983 12.866C80.3863 12.866 81.3343 13.166 82.0423 13.766C82.7503 14.354 83.1403 15.152 83.2123 16.16H80.8003C80.7643 15.764 80.5963 15.452 80.2963 15.224C80.0083 14.984 79.6183 14.864 79.1263 14.864C78.6703 14.864 78.3163 14.948 78.0643 15.116C77.8243 15.284 77.7043 15.518 77.7043 15.818C77.7043 16.154 77.8723 16.412 78.2083 16.592C78.5443 16.76 79.0663 16.934 79.7743 17.114C80.4943 17.294 81.0883 17.48 81.5563 17.672C82.0243 17.864 82.4263 18.164 82.7623 18.572C83.1103 18.968 83.2903 19.496 83.3023 20.156C83.3023 20.732 83.1403 21.248 82.8163 21.704C82.5043 22.16 82.0483 22.52 81.4483 22.784C80.8603 23.036 80.1703 23.162 79.3783 23.162Z" fill="white"/>
<path d="M92.4989 16.556C93.2069 16.688 93.7889 17.042 94.2449 17.618C94.7009 18.194 94.9289 18.854 94.9289 19.598C94.9289 20.27 94.7609 20.864 94.4249 21.38C94.1009 21.884 93.6269 22.28 93.0029 22.568C92.3789 22.856 91.6409 23 90.7889 23H85.3709V10.436H90.5549C91.4069 10.436 92.1389 10.574 92.7509 10.85C93.3749 11.126 93.8429 11.51 94.1549 12.002C94.4789 12.494 94.6409 13.052 94.6409 13.676C94.6409 14.408 94.4429 15.02 94.0469 15.512C93.6629 16.004 93.1469 16.352 92.4989 16.556ZM87.8909 15.62H90.1949C90.7949 15.62 91.2569 15.488 91.5809 15.224C91.9049 14.948 92.0669 14.558 92.0669 14.054C92.0669 13.55 91.9049 13.16 91.5809 12.884C91.2569 12.608 90.7949 12.47 90.1949 12.47H87.8909V15.62ZM90.4289 20.948C91.0409 20.948 91.5149 20.804 91.8509 20.516C92.1989 20.228 92.3729 19.82 92.3729 19.292C92.3729 18.752 92.1929 18.332 91.8329 18.032C91.4729 17.72 90.9869 17.564 90.3749 17.564H87.8909V20.948H90.4289ZM96.2893 17.978C96.2893 16.97 96.4873 16.076 96.8833 15.296C97.2913 14.516 97.8373 13.916 98.5213 13.496C99.2173 13.076 99.9913 12.866 100.843 12.866C101.587 12.866 102.235 13.016 102.787 13.316C103.351 13.616 103.801 13.994 104.137 14.45V13.028H106.675V23H104.137V21.542C103.813 22.01 103.363 22.4 102.787 22.712C102.223 23.012 101.569 23.162 100.825 23.162C99.9853 23.162 99.2173 22.946 98.5213 22.514C97.8373 22.082 97.2913 21.476 96.8833 20.696C96.4873 19.904 96.2893 18.998 96.2893 17.978ZM104.137 18.014C104.137 17.402 104.017 16.88 103.777 16.448C103.537 16.004 103.213 15.668 102.805 15.44C102.397 15.2 101.959 15.08 101.491 15.08C101.023 15.08 100.591 15.194 100.195 15.422C99.7993 15.65 99.4753 15.986 99.2233 16.43C98.9833 16.862 98.8633 17.378 98.8633 17.978C98.8633 18.578 98.9833 19.106 99.2233 19.562C99.4753 20.006 99.7993 20.348 100.195 20.588C100.603 20.828 101.035 20.948 101.491 20.948C101.959 20.948 102.397 20.834 102.805 20.606C103.213 20.366 103.537 20.03 103.777 19.598C104.017 19.154 104.137 18.626 104.137 18.014ZM114.663 12.884C115.851 12.884 116.811 13.262 117.543 14.018C118.275 14.762 118.641 15.806 118.641 17.15V23H116.121V17.492C116.121 16.7 115.923 16.094 115.527 15.674C115.131 15.242 114.591 15.026 113.907 15.026C113.211 15.026 112.659 15.242 112.251 15.674C111.855 16.094 111.657 16.7 111.657 17.492V23H109.137V13.028H111.657V14.27C111.993 13.838 112.419 13.502 112.935 13.262C113.463 13.01 114.039 12.884 114.663 12.884ZM126.941 23L123.557 18.752V23H121.037V9.68H123.557V17.258L126.905 13.028H130.181L125.789 18.032L130.217 23H126.941Z" fill="#9EF01A"/>
<path d="M16 0C12.8355 -3.77363e-08 9.74206 0.938383 7.11088 2.69649C4.47969 4.45459 2.42893 6.95345 1.21793 9.87706C0.00692588 12.8007 -0.309928 16.0177 0.307435 19.1214C0.924798 22.2251 2.44865 25.0761 4.68629 27.3137C6.92393 29.5513 9.77485 31.0752 12.8786 31.6926C15.9822 32.3099 19.1993 31.9931 22.1229 30.7821C25.0465 29.5711 27.5454 27.5203 29.3035 24.8891C31.0616 22.2579 32 19.1645 32 16L24 16C24 17.5823 23.5308 19.129 22.6518 20.4446C21.7727 21.7602 20.5233 22.7855 19.0615 23.391C17.5997 23.9965 15.9911 24.155 14.4393 23.8463C12.8874 23.5376 11.462 22.7757 10.3431 21.6569C9.22432 20.538 8.4624 19.1126 8.15372 17.5607C7.84504 16.0089 8.00346 14.4003 8.60896 12.9385C9.21447 11.4767 10.2398 10.2273 11.5554 9.34824C12.871 8.46919 14.4177 8 16 8L16 0Z" fill="white"/>
<path d="M16 0C13.8989 -2.5056e-08 11.8183 0.413852 9.87706 1.21793C7.93586 2.022 6.17203 3.20055 4.68629 4.68629C3.20055 6.17203 2.022 7.93586 1.21793 9.87707C0.413852 11.8183 -3.17265e-07 13.8989 0 16L8 16C8 14.9494 8.20693 13.9091 8.60896 12.9385C9.011 11.9679 9.60028 11.086 10.3431 10.3431C11.086 9.60028 11.9679 9.011 12.9385 8.60896C13.9091 8.20693 14.9494 8 16 8L16 0Z" fill="#9EF01A"/>
<circle cx="16" cy="16" r="5" fill="#9EF01A"/>
<path d="M21 16C21 15.3434 20.8707 14.6932 20.6194 14.0866C20.3681 13.48 19.9998 12.9288 19.5355 12.4645C19.0712 12.0002 18.52 11.6319 17.9134 11.3806C17.3068 11.1293 16.6566 11 16 11C15.3434 11 14.6932 11.1293 14.0866 11.3806C13.48 11.6319 12.9288 12.0002 12.4645 12.4645C12.0002 12.9288 11.6319 13.48 11.3806 14.0866C11.1293 14.6932 11 15.3434 11 16L16 16H21Z" fill="white"/>
</svg>
